<svg xmlns="http://www.w3.org/2000/svg" viewBox="0 0 32 32" width="32" height="32" shape-rendering="crispEdges">
<g fill="#3a3a44">
<rect x="20" y="24" width="2" height="1"/>
<rect x="15" y="25" width="3" height="1"/>
<rect x="19" y="25" width="1" height="1"/>
<rect x="22" y="25" width="1" height="1"/>
<rect x="12" y="26" width="3" height="1"/>
<rect x="18" y="26" width="2" height="1"/>
<rect x="23" y="26" width="1" height="1"/>
<rect x="11" y="27" width="1" height="1"/>
<rect x="24" y="27" width="1" height="1"/>
<rect x="5" y="28" width="6" height="1"/>
<rect x="25" y="28" width="1" height="1"/>
<rect x="4" y="29" width="1" height="1"/>
<rect x="25" y="29" width="1" height="1"/>
<rect x="5" y="30" width="7" height="1"/>
<rect x="24" y="30" width="1" height="1"/>
<rect x="12" y="31" width="2" height="1"/>
<rect x="20" y="31" width="4" height="1"/>
</g>
<g fill="#6f6f7c">
<rect x="5" y="29" width="6" height="1"/>
<rect x="14" y="30" width="2" height="1"/>
<rect x="18" y="30" width="2" height="1"/>
<rect x="14" y="31" width="2" height="1"/>
<rect x="18" y="31" width="2" height="1"/>
</g>
<g fill="#9a9aa6">
<rect x="15" y="26" width="3" height="1"/>
<rect x="22" y="26" width="1" height="1"/>
<rect x="12" y="27" width="12" height="1"/>
<rect x="11" y="28" width="11" height="1"/>
<rect x="23" y="28" width="1" height="1"/>
<rect x="11" y="29" width="3" height="1"/>
<rect x="21" y="29" width="4" height="1"/>
<rect x="12" y="30" width="2" height="1"/>
<rect x="21" y="30" width="3" height="1"/>
<rect x="16" y="31" width="2" height="1"/>
</g>
<g fill="#d2d2da">
<rect x="14" y="29" width="7" height="1"/>
<rect x="16" y="30" width="2" height="1"/>
<rect x="20" y="30" width="1" height="1"/>
</g>
<g fill="#e9a3ad">
<rect x="20" y="25" width="2" height="1"/>
<rect x="20" y="26" width="2" height="1"/>
<rect x="24" y="28" width="1" height="1"/>
</g>
<g fill="#1e1e24">
<rect x="22" y="28" width="1" height="1"/>
</g>
</svg>
