<svg xmlns="http://www.w3.org/2000/svg" viewBox="0 0 32 32" width="32" height="32" shape-rendering="crispEdges">
<g fill="#9c958a">
<rect x="25" y="12" width="1" height="1"/>
<rect x="19" y="13" width="1" height="1"/>
<rect x="24" y="13" width="1" height="1"/>
<rect x="26" y="13" width="1" height="1"/>
<rect x="18" y="14" width="1" height="1"/>
<rect x="20" y="14" width="1" height="1"/>
<rect x="24" y="14" width="1" height="1"/>
<rect x="26" y="14" width="1" height="1"/>
<rect x="3" y="15" width="2" height="1"/>
<rect x="18" y="15" width="1" height="1"/>
<rect x="21" y="15" width="4" height="1"/>
<rect x="27" y="15" width="1" height="1"/>
<rect x="2" y="16" width="1" height="1"/>
<rect x="5" y="16" width="2" height="1"/>
<rect x="18" y="16" width="1" height="1"/>
<rect x="20" y="16" width="1" height="1"/>
<rect x="26" y="16" width="1" height="1"/>
<rect x="2" y="17" width="1" height="1"/>
<rect x="7" y="17" width="1" height="1"/>
<rect x="19" y="17" width="1" height="1"/>
<rect x="27" y="17" width="1" height="1"/>
<rect x="2" y="18" width="1" height="1"/>
<rect x="8" y="18" width="1" height="1"/>
<rect x="11" y="18" width="6" height="1"/>
<rect x="18" y="18" width="1" height="1"/>
<rect x="28" y="18" width="1" height="1"/>
<rect x="3" y="19" width="1" height="1"/>
<rect x="8" y="19" width="3" height="1"/>
<rect x="17" y="19" width="1" height="1"/>
<rect x="29" y="19" width="1" height="1"/>
<rect x="4" y="20" width="1" height="1"/>
<rect x="29" y="20" width="1" height="1"/>
<rect x="4" y="21" width="1" height="1"/>
<rect x="29" y="21" width="1" height="1"/>
<rect x="5" y="22" width="1" height="1"/>
<rect x="29" y="22" width="1" height="1"/>
<rect x="6" y="23" width="1" height="1"/>
<rect x="28" y="23" width="1" height="1"/>
<rect x="6" y="24" width="1" height="1"/>
<rect x="29" y="24" width="1" height="1"/>
<rect x="5" y="25" width="1" height="1"/>
<rect x="26" y="25" width="3" height="1"/>
<rect x="5" y="26" width="1" height="1"/>
<rect x="21" y="26" width="1" height="1"/>
<rect x="23" y="26" width="3" height="1"/>
<rect x="5" y="27" width="1" height="1"/>
<rect x="21" y="27" width="1" height="1"/>
<rect x="23" y="27" width="1" height="1"/>
<rect x="6" y="28" width="1" height="1"/>
<rect x="11" y="28" width="5" height="1"/>
<rect x="21" y="28" width="1" height="1"/>
<rect x="23" y="28" width="1" height="1"/>
<rect x="5" y="29" width="1" height="1"/>
<rect x="12" y="29" width="1" height="1"/>
<rect x="16" y="29" width="1" height="1"/>
<rect x="21" y="29" width="1" height="1"/>
<rect x="23" y="29" width="1" height="1"/>
<rect x="4" y="30" width="1" height="1"/>
<rect x="13" y="30" width="1" height="1"/>
<rect x="17" y="30" width="2" height="1"/>
<rect x="23" y="30" width="1" height="1"/>
<rect x="4" y="31" width="1" height="1"/>
<rect x="13" y="31" width="1" height="1"/>
<rect x="18" y="31" width="1" height="1"/>
<rect x="23" y="31" width="1" height="1"/>
</g>
<g fill="#f4f2ee">
<rect x="25" y="13" width="1" height="1"/>
<rect x="19" y="14" width="1" height="1"/>
<rect x="25" y="14" width="1" height="1"/>
<rect x="20" y="15" width="1" height="1"/>
<rect x="25" y="15" width="2" height="1"/>
<rect x="3" y="16" width="2" height="1"/>
<rect x="19" y="16" width="1" height="1"/>
<rect x="21" y="16" width="5" height="1"/>
<rect x="3" y="17" width="4" height="1"/>
<rect x="20" y="17" width="7" height="1"/>
<rect x="3" y="18" width="5" height="1"/>
<rect x="19" y="18" width="9" height="1"/>
<rect x="4" y="19" width="4" height="1"/>
<rect x="11" y="19" width="6" height="1"/>
<rect x="18" y="19" width="6" height="1"/>
<rect x="26" y="19" width="3" height="1"/>
<rect x="5" y="20" width="19" height="1"/>
<rect x="26" y="20" width="3" height="1"/>
<rect x="5" y="21" width="19" height="1"/>
<rect x="28" y="21" width="1" height="1"/>
<rect x="6" y="22" width="18" height="1"/>
<rect x="7" y="23" width="17" height="1"/>
<rect x="7" y="24" width="5" height="1"/>
<rect x="19" y="24" width="5" height="1"/>
<rect x="6" y="25" width="4" height="1"/>
<rect x="20" y="25" width="6" height="1"/>
<rect x="6" y="26" width="4" height="1"/>
<rect x="20" y="26" width="1" height="1"/>
<rect x="22" y="26" width="1" height="1"/>
<rect x="6" y="27" width="6" height="1"/>
<rect x="20" y="27" width="1" height="1"/>
<rect x="22" y="27" width="1" height="1"/>
<rect x="7" y="28" width="4" height="1"/>
<rect x="20" y="28" width="1" height="1"/>
<rect x="22" y="28" width="1" height="1"/>
<rect x="6" y="29" width="6" height="1"/>
<rect x="17" y="29" width="4" height="1"/>
<rect x="22" y="29" width="1" height="1"/>
<rect x="9" y="30" width="1" height="1"/>
</g>
<g fill="#ffffff">
<rect x="26" y="21" width="2" height="1"/>
<rect x="24" y="22" width="4" height="1"/>
<rect x="24" y="23" width="4" height="1"/>
<rect x="12" y="24" width="7" height="1"/>
<rect x="24" y="24" width="5" height="1"/>
<rect x="10" y="25" width="10" height="1"/>
<rect x="10" y="26" width="10" height="1"/>
<rect x="12" y="27" width="8" height="1"/>
<rect x="16" y="28" width="4" height="1"/>
<rect x="5" y="30" width="4" height="1"/>
<rect x="10" y="30" width="3" height="1"/>
<rect x="19" y="30" width="4" height="1"/>
<rect x="5" y="31" width="8" height="1"/>
<rect x="19" y="31" width="4" height="1"/>
</g>
<g fill="#f2a3b2">
<rect x="19" y="15" width="1" height="1"/>
<rect x="28" y="22" width="1" height="1"/>
</g>
<g fill="#4d84bb">
<rect x="24" y="19" width="1" height="1"/>
<rect x="24" y="20" width="2" height="1"/>
<rect x="24" y="21" width="2" height="1"/>
</g>
<g fill="#ffffff">
<rect x="25" y="19" width="1" height="1"/>
</g>
</svg>
